<svg width="222" height="143" viewBox="0 0 222 143" fill="none" xmlns="http://www.w3.org/2000/svg">
<rect width="222" height="143" fill="#1E1E1E"/>
<g clip-path="url(#clip0_0_1)">
<rect width="1440" height="10785" transform="translate(-244 -7681)" fill="white"/>
<path d="M107.697 128.369C122.311 128.369 136.925 128.416 151.539 128.355C182.153 128.233 207.146 103.138 207.459 72.4894C207.704 48.5703 196.917 31.0948 176.131 20.1379C142.41 2.36333 100.017 23.9918 94.0419 61.6412C91.3163 78.7972 95.4285 94.2063 106.318 107.78C109.138 111.294 109.369 114.326 107.12 117.371C105.339 119.777 101.757 120.64 98.8339 119.39C97.4269 118.792 96.3733 117.752 95.4829 116.583C81.542 98.2098 75.2206 77.9408 81.2497 55.0684C89.2635 24.6647 109.084 6.45521 139.977 0.983508C172.372 -4.75328 206.038 15.1623 217.084 46.2321C227.116 74.447 221.346 99.7188 200.995 121.252C187.462 135.574 169.986 142.316 150.343 142.486C119.647 142.758 88.9441 142.568 58.2414 142.568C56.4265 142.568 54.6117 142.616 52.8716 141.943C49.7993 140.753 48.0253 137.946 48.3311 134.744C48.6302 131.625 50.9956 129.3 54.367 128.892C62.945 127.845 71.5638 128.511 80.1622 128.396C89.3383 128.274 98.5144 128.369 107.691 128.369H107.697Z" fill="url(#paint0_linear_0_1)"/>
<path d="M175.941 55.9384C175.744 58.0319 175.003 59.7787 173.582 61.1925C168.131 66.6371 162.747 72.1427 157.194 77.4853C153.191 81.3325 149.575 81.2577 145.653 77.227C138.393 69.7569 130.359 63.0821 123.508 55.1907C120.095 51.2551 119.49 47.6118 122.338 44.6823C125.37 41.5692 129.605 41.9566 133.391 45.6815C138.468 50.691 143.593 55.6597 148.609 60.7303C150.642 62.7831 152.205 63.1297 154.353 60.7167C157.439 57.257 160.803 54.0351 164.222 50.8949C166.466 48.8353 169.123 48.21 172.066 49.7054C174.704 51.0444 175.669 53.3079 175.941 55.9384Z" fill="url(#paint1_linear_0_1)"/>
<path d="M32.3783 83.4875C24.1198 83.4875 15.8612 83.5555 7.6027 83.4603C2.91267 83.406 0.356949 81.2037 0.0306865 77.3429C-0.336359 72.9044 2.6136 69.8525 7.57551 69.8185C19.4569 69.7437 31.3315 69.7777 43.2129 69.7709C47.6243 69.7709 52.0356 69.7097 56.447 69.7777C61.7419 69.866 64.7395 72.4965 64.6171 76.7991C64.5016 80.8162 61.2865 83.5147 56.4742 83.5351C48.4399 83.5623 40.4125 83.5419 32.3783 83.5419C32.3783 83.5215 32.3783 83.5079 32.3783 83.4875Z" fill="url(#paint2_linear_0_1)"/>
<path d="M45.2928 108.487C51.4102 108.487 57.5208 108.44 63.6382 108.501C67.8253 108.542 70.5102 110.887 70.85 114.591C71.2171 118.608 69.0284 121.49 64.5898 121.932C60.4368 122.347 56.2226 122.177 52.0355 122.197C44.5587 122.224 37.0886 122.224 29.6117 122.184C28.0348 122.177 26.4307 122.082 24.8945 121.769C21.2581 121.035 18.9266 118.099 19.2053 114.849C19.518 111.152 22.0601 108.623 25.9277 108.555C32.3782 108.44 38.8355 108.521 45.2928 108.521V108.487Z" fill="url(#paint3_linear_0_1)"/>
<path d="M58.391 88.8575C62.3469 88.8575 66.3029 88.7963 70.2588 88.8779C74.2487 88.9594 77.3482 92.0181 77.5114 95.8925C77.6541 99.2775 75.1188 102.309 71.2172 102.567C62.782 103.131 54.3195 103.403 45.8707 102.996C41.3778 102.778 38.6045 99.5698 38.7609 95.5255C38.924 91.3588 41.4321 89.1022 46.1833 88.9187C48.2157 88.8439 50.2548 88.8779 52.2872 88.8779C54.3195 88.8779 56.3587 88.8779 58.391 88.8779V88.8643V88.8575Z" fill="url(#paint4_linear_0_1)"/>
<path d="M59.6077 64.4413C57.2355 64.4413 54.8565 64.5568 52.4911 64.4141C48.2089 64.1558 45.0958 61.2262 44.987 57.5558C44.8715 53.7018 47.5291 50.7043 52.0628 50.4052C57.6909 50.0381 63.3597 49.9362 68.9673 50.7994C72.1484 51.2888 74.2895 54.2592 74.2283 57.7257C74.1671 61.0971 71.4279 64.0606 67.7506 64.3597C65.059 64.5772 62.3265 64.4005 59.6145 64.4005V64.4345L59.6077 64.4413Z" fill="url(#paint5_linear_0_1)"/>
<path d="M188.617 53.988C186.327 53.8996 184.342 51.7857 184.43 49.5358C184.526 47.1161 188.883 43.6971 191.832 43.7243C194.259 43.7515 196.04 45.6479 195.952 48.1152C195.856 50.671 191.574 54.0967 188.624 53.988H188.617Z" fill="url(#paint6_linear_0_1)"/>
<path d="M128.571 105.911C130.95 105.986 132.67 107.964 132.548 110.479C132.385 113.714 128.83 117.636 126.138 117.337C123.616 117.059 122.332 115.454 122.434 112.926C122.583 109.289 125.683 105.816 128.565 105.904L128.571 105.911Z" fill="url(#paint7_linear_0_1)"/>
<path d="M128.483 37.8512C126.002 37.926 122.502 33.8137 122.386 30.6938C122.298 28.2877 124.153 26.3301 126.539 26.3301C129.081 26.3301 132.555 30.3268 132.725 33.4535C132.84 35.6218 130.76 37.7833 128.483 37.8512Z" fill="url(#paint8_linear_0_1)"/>
<path d="M174.54 26.3097C176.94 26.3844 178.802 28.3624 178.673 30.7006C178.517 33.6914 174.914 37.8716 172.508 37.8512C170.184 37.8308 168.457 35.8733 168.539 33.3447C168.647 29.8918 171.774 26.2213 174.534 26.3097H174.54Z" fill="url(#paint9_linear_0_1)"/>
<path d="M116.33 49.7126C116.153 52.4043 114.705 53.8996 112.027 53.9608C108.778 54.0356 104.829 50.6302 104.836 47.9113C104.836 45.5731 106.793 43.867 109.376 43.9418C112.652 44.0438 116.364 47.1229 116.33 49.7058V49.7126Z" fill="url(#paint10_linear_0_1)"/>
<path d="M116.323 93.5198C116.269 96.6737 112.517 99.7596 109.091 99.8139C106.685 99.8547 104.775 97.8836 104.89 95.4842C105.013 92.9284 109.22 89.6114 112.394 89.7066C115.018 89.7814 116.16 91.4059 116.323 93.5266V93.5198Z" fill="url(#paint11_linear_0_1)"/>
<path d="M174.772 117.398C171.686 117.446 168.539 113.653 168.573 110.207C168.6 107.712 169.735 106.074 172.372 105.932C175.023 105.789 178.823 110.193 178.646 113.306C178.503 115.815 176.899 117.086 174.772 117.398Z" fill="url(#paint12_linear_0_1)"/>
<path d="M154.564 25.3988C154.55 28.1312 154.666 30.5102 151.967 31.5298C150.078 32.2435 148.215 31.9308 147.148 30.1976C145.489 27.5127 145.673 24.5151 146.978 21.7759C147.848 19.9475 149.751 19.4309 151.654 20.029C154.53 20.9263 154.659 23.3664 154.57 25.3988H154.564Z" fill="url(#paint13_linear_0_1)"/>
<path d="M196.767 67.6768C199.248 67.5341 201.627 67.9215 202.409 70.9939C202.987 73.2505 201.457 75.5615 199.058 75.9558C197.739 76.1733 196.373 76.1189 195.027 76.0917C192.437 76.0373 190.555 74.8138 190.487 72.1358C190.419 69.3761 192.084 67.8128 194.918 67.6836C195.476 67.6565 196.04 67.6836 196.767 67.6836V67.6768Z" fill="url(#paint14_linear_0_1)"/>
<path d="M188.658 89.7744C192.111 89.788 196.033 93.0166 195.918 95.7491C195.809 98.2776 194.341 99.6779 191.86 99.8138C188.515 99.9973 184.519 96.5648 184.573 93.6148C184.621 90.8891 186.422 89.9987 188.665 89.7744H188.658Z" fill="url(#paint15_linear_0_1)"/>
<path d="M154.543 117.86C154.53 122.013 153.442 123.597 150.587 123.624C147.631 123.658 146.156 121.708 146.169 117.772C146.183 113.728 147.556 111.824 150.485 111.791C153.333 111.757 154.557 113.592 154.543 117.86Z" fill="url(#paint16_linear_0_1)"/>
<path d="M104.679 67.6905C108.751 67.7041 110.375 68.9004 110.294 71.8367C110.212 74.7459 108.255 76.1053 104.217 76.0713C100.52 76.0374 98.5756 74.5488 98.5552 71.7484C98.5348 68.8732 100.336 67.6837 104.679 67.6905Z" fill="url(#paint17_linear_0_1)"/>
</g>
<defs>
<linearGradient id="paint0_linear_0_1" x1="135.099" y1="0" x2="135.099" y2="142.633" gradientUnits="userSpaceOnUse">
<stop stop-color="#DDAB52"/>
<stop offset="1" stop-color="#FDDE6E"/>
</linearGradient>
<linearGradient id="paint1_linear_0_1" x1="148.235" y1="42.5913" x2="148.235" y2="80.3117" gradientUnits="userSpaceOnUse">
<stop stop-color="#DDAB52"/>
<stop offset="1" stop-color="#FDDE6E"/>
</linearGradient>
<linearGradient id="paint2_linear_0_1" x1="32.3104" y1="69.7456" x2="32.3104" y2="83.5492" gradientUnits="userSpaceOnUse">
<stop stop-color="#DDAB52"/>
<stop offset="1" stop-color="#FDDE6E"/>
</linearGradient>
<linearGradient id="paint3_linear_0_1" x1="45.0362" y1="108.47" x2="45.0362" y2="122.216" gradientUnits="userSpaceOnUse">
<stop stop-color="#DDAB52"/>
<stop offset="1" stop-color="#FDDE6E"/>
</linearGradient>
<linearGradient id="paint4_linear_0_1" x1="58.1358" y1="88.8354" x2="58.1358" y2="103.191" gradientUnits="userSpaceOnUse">
<stop stop-color="#DDAB52"/>
<stop offset="1" stop-color="#FDDE6E"/>
</linearGradient>
<linearGradient id="paint5_linear_0_1" x1="59.6065" y1="50.1343" x2="59.6065" y2="64.4854" gradientUnits="userSpaceOnUse">
<stop stop-color="#DDAB52"/>
<stop offset="1" stop-color="#FDDE6E"/>
</linearGradient>
<linearGradient id="paint6_linear_0_1" x1="190.191" y1="43.7241" x2="190.191" y2="53.9905" gradientUnits="userSpaceOnUse">
<stop stop-color="#DDAB52"/>
<stop offset="1" stop-color="#FDDE6E"/>
</linearGradient>
<linearGradient id="paint7_linear_0_1" x1="127.491" y1="105.903" x2="127.491" y2="117.353" gradientUnits="userSpaceOnUse">
<stop stop-color="#DDAB52"/>
<stop offset="1" stop-color="#FDDE6E"/>
</linearGradient>
<linearGradient id="paint8_linear_0_1" x1="127.556" y1="26.3301" x2="127.556" y2="37.8522" gradientUnits="userSpaceOnUse">
<stop stop-color="#DDAB52"/>
<stop offset="1" stop-color="#FDDE6E"/>
</linearGradient>
<linearGradient id="paint9_linear_0_1" x1="173.608" y1="26.3081" x2="173.608" y2="37.8513" gradientUnits="userSpaceOnUse">
<stop stop-color="#DDAB52"/>
<stop offset="1" stop-color="#FDDE6E"/>
</linearGradient>
<linearGradient id="paint10_linear_0_1" x1="110.583" y1="43.9395" x2="110.583" y2="53.962" gradientUnits="userSpaceOnUse">
<stop stop-color="#DDAB52"/>
<stop offset="1" stop-color="#FDDE6E"/>
</linearGradient>
<linearGradient id="paint11_linear_0_1" x1="110.604" y1="89.7046" x2="110.604" y2="99.8146" gradientUnits="userSpaceOnUse">
<stop stop-color="#DDAB52"/>
<stop offset="1" stop-color="#FDDE6E"/>
</linearGradient>
<linearGradient id="paint12_linear_0_1" x1="173.612" y1="105.928" x2="173.612" y2="117.399" gradientUnits="userSpaceOnUse">
<stop stop-color="#DDAB52"/>
<stop offset="1" stop-color="#FDDE6E"/>
</linearGradient>
<linearGradient id="paint13_linear_0_1" x1="150.27" y1="19.792" x2="150.27" y2="31.8869" gradientUnits="userSpaceOnUse">
<stop stop-color="#DDAB52"/>
<stop offset="1" stop-color="#FDDE6E"/>
</linearGradient>
<linearGradient id="paint14_linear_0_1" x1="196.508" y1="67.6519" x2="196.508" y2="76.1183" gradientUnits="userSpaceOnUse">
<stop stop-color="#DDAB52"/>
<stop offset="1" stop-color="#FDDE6E"/>
</linearGradient>
<linearGradient id="paint15_linear_0_1" x1="190.246" y1="89.7744" x2="190.246" y2="99.8209" gradientUnits="userSpaceOnUse">
<stop stop-color="#DDAB52"/>
<stop offset="1" stop-color="#FDDE6E"/>
</linearGradient>
<linearGradient id="paint16_linear_0_1" x1="150.356" y1="111.79" x2="150.356" y2="123.625" gradientUnits="userSpaceOnUse">
<stop stop-color="#DDAB52"/>
<stop offset="1" stop-color="#FDDE6E"/>
</linearGradient>
<linearGradient id="paint17_linear_0_1" x1="104.426" y1="67.6904" x2="104.426" y2="76.072" gradientUnits="userSpaceOnUse">
<stop stop-color="#DDAB52"/>
<stop offset="1" stop-color="#FDDE6E"/>
</linearGradient>
<clipPath id="clip0_0_1">
<rect width="1440" height="10785" fill="white" transform="translate(-244 -7681)"/>
</clipPath>
</defs>
</svg>
