<svg width="138" height="176" viewBox="0 0 138 176" fill="none" xmlns="http://www.w3.org/2000/svg">
<g clip-path="url(#clip0_0_162)">
<path d="M24.3974 116.765C37.4305 115.443 49.4437 115.8 60.0662 122.821C66.649 127.171 73.5232 128.718 81.2318 128.083C85.457 127.739 90.2649 127.739 91.0993 133.266C92 139.19 87.2053 141.319 82.702 142.442C78.9536 143.381 74.8344 142.76 70.9801 143.408C68.755 143.778 66.7285 145.298 64.6225 146.303C66.5033 147.282 68.3311 148.974 70.2781 149.12C78.5033 149.715 88.2384 150.257 92.5298 142.614C98.5431 131.931 109.166 129.749 118.265 124.672C124.424 121.247 130.291 123.098 133.192 128.229C136.013 133.213 134.795 138.291 128.411 142.085C110.689 152.637 92.8477 163.016 74.7285 172.84C65.1126 178.05 55.0464 176.159 45.4702 171.65C43.6821 170.804 42.0927 169.402 40.2252 168.9C26.3709 165.145 22.4768 155.955 24.1987 142.429C25.2715 134.06 24.3974 125.439 24.3974 116.752V116.765Z" fill="url(#paint0_linear_0_162)"/>
<path d="M86.5828 20.8381C96.0927 21.2479 107.033 26.4707 113.616 38.6086C120.172 50.6937 119.099 62.8184 111.828 74.2687C108.543 79.4518 104.623 84.2515 100.848 89.1172C98.3444 92.3434 69.2583 96.3497 66.1192 94.0491C65.7616 93.7846 65.3377 93.5334 65.1523 93.1632C59.9603 82.8631 53.1788 73.0259 49.947 62.144C43.6159 40.8035 60.1854 20.7719 86.5828 20.8381ZM101.589 42.086C88.0265 41.7158 85.0066 54.6339 78.9536 59.1426C73.192 58.2567 69.3907 57.675 64.4371 56.9213C69.5497 64.0084 73.3775 69.3237 77.0728 74.4274C84.8609 64.1538 92.9139 53.5232 101.589 42.086Z" fill="url(#paint1_linear_0_162)"/>
<path d="M17.9073 112.653V164.775H0V112.653H17.9073Z" fill="url(#paint2_linear_0_162)"/>
<path d="M97.2716 97.606C98.9537 103.437 97.2451 105.513 91.8808 105.79C83.8544 106.214 75.8676 107.404 67.5497 108.303C67.0994 105.671 66.755 103.609 66.3047 101.004C71.7484 100.356 76.8742 99.7083 82 99.1397C86.9537 98.5976 91.9073 98.1348 97.2583 97.606H97.2716Z" fill="url(#paint3_linear_0_162)"/>
<path d="M130.437 58.5475C127.324 56.3923 123.258 54.8718 123.232 53.3116C123.166 48.2343 127.828 49.1863 131.192 49.0012C134.225 48.8293 138.437 48.3268 137.96 52.6769C137.735 54.647 133.642 56.1808 130.45 58.5475H130.437Z" fill="url(#paint4_linear_0_162)"/>
<path d="M94.1722 6.88874C91.4967 10.4323 89.6292 12.9048 87.7616 15.3906C86.5696 13.1164 84.2517 10.7364 84.4768 8.60762C84.7947 5.63264 87.0066 2.86921 88.4106 0C90.0795 1.99654 91.7616 3.99309 94.1722 6.88874Z" fill="url(#paint5_linear_0_162)"/>
<path d="M94.3577 111.119C88.053 120.071 80.7285 121.194 70.649 113.935C79.2318 112.917 86.649 112.045 94.3577 111.119Z" fill="url(#paint6_linear_0_162)"/>
<path d="M57.1258 17.9689C54.4503 20.0976 52.1987 22.2793 51.9073 22.0413C48.6093 19.3969 45.5232 16.4616 42.702 13.3147C42.4636 13.0502 44.649 10.6306 45.7086 9.21582C49.1523 11.8602 52.596 14.5047 57.1126 17.9689H57.1258Z" fill="url(#paint7_linear_0_162)"/>
<path d="M128.49 18.2993C124.291 22.1469 121.152 25.0955 117.815 27.8193C117.695 27.9118 114.636 24.9897 114.795 24.7782C117.298 21.2214 120.053 17.8101 123.007 14.6103C123.179 14.4252 125.669 16.3821 128.49 18.2993Z" fill="url(#paint8_linear_0_162)"/>
<path d="M35.6954 56.5509C33.3642 55.7311 30.9934 55.2948 29.192 54.0387C28.6093 53.6288 29.4304 49.7283 29.7881 49.7018C33.9867 49.3713 38.2384 49.3713 42.4371 49.6622C42.7417 49.6886 43.4569 53.7081 42.9139 54.0387C40.8212 55.2684 38.2914 55.7311 35.7086 56.5377L35.6954 56.5509Z" fill="url(#paint9_linear_0_162)"/>
</g>
<defs>
<linearGradient id="paint0_linear_0_162" x1="79.2211" y1="116.159" x2="79.2211" y2="175.979" gradientUnits="userSpaceOnUse">
<stop stop-color="#DDAB52"/>
<stop offset="1" stop-color="#FDDE6E"/>
</linearGradient>
<linearGradient id="paint1_linear_0_162" x1="83.2801" y1="20.8379" x2="83.2801" y2="94.7299" gradientUnits="userSpaceOnUse">
<stop stop-color="#DDAB52"/>
<stop offset="1" stop-color="#FDDE6E"/>
</linearGradient>
<linearGradient id="paint2_linear_0_162" x1="8.95364" y1="112.653" x2="8.95364" y2="164.775" gradientUnits="userSpaceOnUse">
<stop stop-color="#DDAB52"/>
<stop offset="1" stop-color="#FDDE6E"/>
</linearGradient>
<linearGradient id="paint3_linear_0_162" x1="82.0991" y1="97.606" x2="82.0991" y2="108.303" gradientUnits="userSpaceOnUse">
<stop stop-color="#DDAB52"/>
<stop offset="1" stop-color="#FDDE6E"/>
</linearGradient>
<linearGradient id="paint4_linear_0_162" x1="130.614" y1="48.8911" x2="130.614" y2="58.5475" gradientUnits="userSpaceOnUse">
<stop stop-color="#DDAB52"/>
<stop offset="1" stop-color="#FDDE6E"/>
</linearGradient>
<linearGradient id="paint5_linear_0_162" x1="89.3169" y1="0" x2="89.3169" y2="15.3906" gradientUnits="userSpaceOnUse">
<stop stop-color="#DDAB52"/>
<stop offset="1" stop-color="#FDDE6E"/>
</linearGradient>
<linearGradient id="paint6_linear_0_162" x1="82.5034" y1="111.119" x2="82.5034" y2="118.696" gradientUnits="userSpaceOnUse">
<stop stop-color="#DDAB52"/>
<stop offset="1" stop-color="#FDDE6E"/>
</linearGradient>
<linearGradient id="paint7_linear_0_162" x1="49.9049" y1="9.21582" x2="49.9049" y2="22.0592" gradientUnits="userSpaceOnUse">
<stop stop-color="#DDAB52"/>
<stop offset="1" stop-color="#FDDE6E"/>
</linearGradient>
<linearGradient id="paint8_linear_0_162" x1="121.639" y1="14.5981" x2="121.639" y2="27.8214" gradientUnits="userSpaceOnUse">
<stop stop-color="#DDAB52"/>
<stop offset="1" stop-color="#FDDE6E"/>
</linearGradient>
<linearGradient id="paint9_linear_0_162" x1="36.0503" y1="49.4487" x2="36.0503" y2="56.5509" gradientUnits="userSpaceOnUse">
<stop stop-color="#DDAB52"/>
<stop offset="1" stop-color="#FDDE6E"/>
</linearGradient>
<clipPath id="clip0_0_162">
<rect width="138" height="176" fill="white"/>
</clipPath>
</defs>
</svg>
