<svg width="196" height="196" viewBox="0 0 196 196" fill="none" xmlns="http://www.w3.org/2000/svg">
<rect width="196" height="196" fill="#1E1E1E"/>
<g clip-path="url(#clip0_0_1)">
<rect width="1440" height="10785" transform="translate(-257 -7240)" fill="white"/>
<path d="M97.9272 141.588C91.8315 141.588 85.7358 141.648 79.6402 141.573C73.8212 141.498 70.7098 138.364 70.6425 132.493C70.5752 126.15 70.463 119.793 70.6799 113.458C71.0239 103.518 75.5863 95.8515 84.0829 90.7207C85.2796 89.9952 87.4337 89.9428 88.75 90.5038C94.9654 93.144 100.986 93.1739 107.194 90.4365C108.503 89.8606 110.665 89.898 111.876 90.601C119.55 95.0587 124.367 101.798 125.092 110.661C125.72 118.327 125.526 126.076 125.324 133.779C125.197 138.626 121.741 141.491 116.596 141.558C110.373 141.64 104.15 141.58 97.9347 141.58L97.9272 141.588Z" fill="url(#paint0_linear_0_1)"/>
<path d="M115.691 72.1796C115.646 82.0972 107.673 90.0104 97.8225 89.9206C87.89 89.8309 80.1339 81.9551 80.1563 71.9851C80.1787 62.0825 88.1143 54.2067 98.0245 54.259C107.927 54.3114 115.743 62.2395 115.691 72.1871V72.1796Z" fill="url(#paint1_linear_0_1)"/>
<path d="M73.754 96.6145C68.4287 103.772 67.6658 111.955 67.9051 120.429C68.0248 124.744 67.6658 129.075 67.5237 133.398C63.0959 133.585 58.6681 133.787 54.2403 133.959C52.8716 134.011 51.5029 134.004 50.1417 133.959C45.3773 133.809 43.2756 131.82 43.1709 127.108C43.0737 122.508 43.0138 117.908 43.2008 113.316C43.485 106.285 46.5291 100.638 52.4752 96.7865C53.455 96.1508 55.1753 95.7319 56.1476 96.1508C61.0241 98.26 65.7511 98.3198 70.5678 96.0685C71.3307 95.7095 72.318 95.8366 73.208 95.7319C73.3875 96.0236 73.567 96.3153 73.7465 96.6145H73.754Z" fill="url(#paint2_linear_0_1)"/>
<path d="M122.13 95.0511C124.262 95.7915 125.287 96.0758 126.252 96.4871C130.358 98.2298 134.546 98.3645 138.555 96.4722C140.709 95.455 142.272 95.8065 144 97.1004C149.55 101.237 152.489 106.749 152.676 113.652C152.796 118.125 152.781 122.605 152.699 127.078C152.616 131.655 150.597 133.802 146.117 133.921C141.023 134.056 135.922 133.891 130.829 133.989C128.66 134.034 128.039 133.091 128.069 131.079C128.151 126.233 127.987 121.378 128.114 116.532C128.286 109.763 126.902 103.45 123.185 97.7137C122.886 97.2575 122.766 96.6816 122.13 95.0361V95.0511Z" fill="url(#paint3_linear_0_1)"/>
<path d="M24.7043 88.3121H17.5465C18.9377 56.3603 48.7953 20.6538 88.2265 17.3105V24.7002C53.1109 31.7457 31.9144 52.845 24.6968 88.3121H24.7043Z" fill="url(#paint4_linear_0_1)"/>
<path d="M17.3671 107.497H24.7043C31.8172 142.822 52.9688 163.958 88.3163 171.138V178.341C55.6016 176.643 20.3887 146.307 17.3671 107.504V107.497Z" fill="url(#paint5_linear_0_1)"/>
<path d="M178.285 88.2825H171.15C164.097 53.0322 142.893 31.7983 107.486 24.678V17.6698C136.446 13.7955 180.552 57.7442 178.285 88.2825Z" fill="url(#paint6_linear_0_1)"/>
<path d="M107.501 178.514V171.221C112.355 169.897 117.246 168.94 121.869 167.242C147.456 157.848 163.304 139.651 169.774 113.271C171.39 106.682 171.188 106.629 178.248 107.684C177.036 139.202 147.134 175.148 107.501 178.506V178.514Z" fill="url(#paint7_linear_0_1)"/>
<path d="M76.4092 82.0594C76.4092 89.2845 70.6351 95.1034 63.4175 95.1633C56.2224 95.2231 50.3586 89.4042 50.3436 82.1791C50.3212 74.9241 56.0354 69.1501 63.3053 69.0753C70.4481 69.008 76.4241 74.9241 76.4167 82.052L76.4092 82.0594Z" fill="url(#paint8_linear_0_1)"/>
<path d="M145.496 81.985C145.548 89.2773 139.872 95.0813 132.624 95.1486C125.414 95.2159 119.505 89.4344 119.438 82.2617C119.371 75.074 125.182 69.1504 132.355 69.098C139.617 69.0457 145.451 74.7599 145.496 81.9924V81.985Z" fill="url(#paint9_linear_0_1)"/>
<path d="M101.936 20.6092C101.936 25.7026 101.959 30.7886 101.936 35.882C101.921 38.6868 101.009 40.9156 97.7328 40.8034C94.6738 40.6987 93.9184 38.4923 93.9184 35.8745C93.9184 25.568 93.9184 15.2614 93.9109 4.96235C93.9109 2.2997 94.7785 0.100764 97.7328 0.00353241C100.912 -0.101179 101.921 2.13515 101.929 4.96983C101.929 10.1829 101.929 15.3961 101.929 20.6166L101.936 20.6092Z" fill="url(#paint10_linear_0_1)"/>
<path d="M20.5084 93.9069C25.6168 93.9069 30.7252 93.9069 35.8336 93.9069C38.6534 93.9069 40.9046 94.7895 40.8074 98.0729C40.7177 101.147 38.5112 101.895 35.871 101.902C25.5271 101.902 15.1831 101.902 4.84665 101.91C2.12416 101.91 0.0149787 100.855 1.9971e-05 97.9233C-0.00745939 95.0064 2.08676 93.8994 4.80925 93.8994C10.0448 93.8994 15.2729 93.8994 20.5084 93.8994V93.9069Z" fill="url(#paint11_linear_0_1)"/>
<path d="M175.683 101.917C170.447 101.917 165.219 101.917 159.984 101.917C157.343 101.917 155.122 101.154 155.04 98.0877C154.95 94.8267 157.179 93.9067 160.013 93.9067C170.23 93.9067 180.447 93.9142 190.664 93.9067C193.476 93.9067 195.855 94.7818 195.84 97.9456C195.825 101.117 193.446 101.955 190.626 101.932C185.645 101.895 180.656 101.925 175.675 101.917H175.683Z" fill="url(#paint12_linear_0_1)"/>
<path d="M93.9258 175.163C93.9258 170.055 93.9108 164.939 93.9258 159.83C93.9333 157.175 94.8083 155.028 97.8749 155.006C100.926 154.984 101.906 157.07 101.914 159.755C101.936 170.099 101.914 180.443 101.921 190.795C101.921 193.629 100.956 195.926 97.7627 195.836C94.8233 195.761 93.8884 193.562 93.8959 190.87C93.9108 185.634 93.8959 180.398 93.8959 175.163H93.9108H93.9258Z" fill="url(#paint13_linear_0_1)"/>
</g>
<defs>
<linearGradient id="paint0_linear_0_1" x1="98.0363" y1="90.0361" x2="98.0363" y2="141.61" gradientUnits="userSpaceOnUse">
<stop stop-color="#DDAB52"/>
<stop offset="1" stop-color="#FDDE6E"/>
</linearGradient>
<linearGradient id="paint1_linear_0_1" x1="97.9236" y1="54.2588" x2="97.9236" y2="89.9214" gradientUnits="userSpaceOnUse">
<stop stop-color="#DDAB52"/>
<stop offset="1" stop-color="#FDDE6E"/>
</linearGradient>
<linearGradient id="paint2_linear_0_1" x1="58.4165" y1="95.7319" x2="58.4165" y2="133.995" gradientUnits="userSpaceOnUse">
<stop stop-color="#DDAB52"/>
<stop offset="1" stop-color="#FDDE6E"/>
</linearGradient>
<linearGradient id="paint3_linear_0_1" x1="137.447" y1="95.0361" x2="137.447" y2="133.99" gradientUnits="userSpaceOnUse">
<stop stop-color="#DDAB52"/>
<stop offset="1" stop-color="#FDDE6E"/>
</linearGradient>
<linearGradient id="paint4_linear_0_1" x1="52.8865" y1="17.3105" x2="52.8865" y2="88.3121" gradientUnits="userSpaceOnUse">
<stop stop-color="#DDAB52"/>
<stop offset="1" stop-color="#FDDE6E"/>
</linearGradient>
<linearGradient id="paint5_linear_0_1" x1="52.8417" y1="107.497" x2="52.8417" y2="178.341" gradientUnits="userSpaceOnUse">
<stop stop-color="#DDAB52"/>
<stop offset="1" stop-color="#FDDE6E"/>
</linearGradient>
<linearGradient id="paint6_linear_0_1" x1="142.928" y1="17.4302" x2="142.928" y2="88.2825" gradientUnits="userSpaceOnUse">
<stop stop-color="#DDAB52"/>
<stop offset="1" stop-color="#FDDE6E"/>
</linearGradient>
<linearGradient id="paint7_linear_0_1" x1="142.874" y1="107.178" x2="142.874" y2="178.514" gradientUnits="userSpaceOnUse">
<stop stop-color="#DDAB52"/>
<stop offset="1" stop-color="#FDDE6E"/>
</linearGradient>
<linearGradient id="paint8_linear_0_1" x1="63.3801" y1="69.0747" x2="63.3801" y2="95.1637" gradientUnits="userSpaceOnUse">
<stop stop-color="#DDAB52"/>
<stop offset="1" stop-color="#FDDE6E"/>
</linearGradient>
<linearGradient id="paint9_linear_0_1" x1="132.467" y1="69.0977" x2="132.467" y2="95.1492" gradientUnits="userSpaceOnUse">
<stop stop-color="#DDAB52"/>
<stop offset="1" stop-color="#FDDE6E"/>
</linearGradient>
<linearGradient id="paint10_linear_0_1" x1="97.9285" y1="0" x2="97.9285" y2="40.8075" gradientUnits="userSpaceOnUse">
<stop stop-color="#DDAB52"/>
<stop offset="1" stop-color="#FDDE6E"/>
</linearGradient>
<linearGradient id="paint11_linear_0_1" x1="20.4052" y1="93.8994" x2="20.4052" y2="101.91" gradientUnits="userSpaceOnUse">
<stop stop-color="#DDAB52"/>
<stop offset="1" stop-color="#FDDE6E"/>
</linearGradient>
<linearGradient id="paint12_linear_0_1" x1="175.438" y1="93.9067" x2="175.438" y2="101.933" gradientUnits="userSpaceOnUse">
<stop stop-color="#DDAB52"/>
<stop offset="1" stop-color="#FDDE6E"/>
</linearGradient>
<linearGradient id="paint13_linear_0_1" x1="97.9099" y1="155.006" x2="97.9099" y2="195.838" gradientUnits="userSpaceOnUse">
<stop stop-color="#DDAB52"/>
<stop offset="1" stop-color="#FDDE6E"/>
</linearGradient>
<clipPath id="clip0_0_1">
<rect width="1440" height="10785" fill="white" transform="translate(-257 -7240)"/>
</clipPath>
</defs>
</svg>
