<svg width="146" height="186" viewBox="0 0 146 186" fill="none" xmlns="http://www.w3.org/2000/svg">
<rect width="146" height="186" fill="#1E1E1E"/>
<g clip-path="url(#clip0_0_1)">
<rect width="1440" height="10785" transform="translate(-282 -6821)" fill="white"/>
<path d="M32.0449 126.234C32.5445 114.051 24.9044 104.545 12.8195 102.047C6.37042 100.717 1.86185 97.2247 0.40354 90.6246C-1.0141 84.1871 1.368 79.173 6.5331 75.1699C16.6716 67.3206 19.1815 55.9504 13.4993 44.4524C9.17085 35.6909 12.4942 26.1392 21.2615 23.3098C23.9631 22.4383 27.2632 22.4325 30.0637 23.0541C43.171 25.9649 53.385 21.2879 59.1369 9.08686C61.9025 3.2478 66.3239 0 72.7382 0C79.1524 0 83.5622 3.27104 86.3162 9.11591C92.0623 21.2995 102.305 26.0695 115.384 22.9612C121.327 21.5493 126.603 22.8333 130.542 27.6905C134.499 32.5709 135.364 38.1427 132.239 43.6622C126.109 54.4805 128.915 68.4884 139.553 75.8265C144.672 79.3531 146.386 84.6344 145.032 90.6594C143.678 96.6902 139.821 100.525 133.714 101.704C124.319 103.523 117.591 108.554 114.472 117.705C113.53 120.471 113.222 123.573 113.24 126.519C113.28 133.032 110.945 138.092 104.99 140.962C99.0866 143.809 93.6252 142.758 88.5588 138.58C78.4494 130.255 66.8991 130.092 56.9059 138.638C48.3419 145.959 35.9434 141.991 33.0151 132.492C32.3993 130.499 32.3528 128.326 32.0449 126.24V126.234ZM72.7905 26.4239C46.5583 26.3252 25.1832 47.5259 24.9799 73.8394C24.7823 100.124 46.1283 121.714 72.5058 121.911C98.7206 122.109 120.38 100.589 120.462 74.2694C120.543 47.8861 99.2609 26.5285 72.7905 26.4239Z" fill="url(#paint0_linear_0_1)"/>
<path d="M27.8964 142.938C38.0291 153.419 52.1009 154.198 62.1174 145.198C62.832 144.553 63.628 143.978 64.453 143.49C65.3187 142.973 66.2657 142.601 67.7473 141.886C67.2709 143.223 67.0791 143.931 66.7828 144.588C61.0251 157.347 55.2848 170.111 49.4341 182.824C48.8938 183.991 47.6156 184.822 46.6802 185.81C45.7041 184.869 44.4782 184.079 43.8101 182.957C42.4796 180.726 41.55 178.257 40.3008 175.974C37.6398 171.111 32.5967 169.007 27.2515 170.437C24.4569 171.186 21.6913 172.069 18.8735 172.703C16.5611 173.22 15.0389 171.692 15.9569 169.583C19.7857 160.757 23.812 152.019 27.8964 142.949V142.938Z" fill="url(#paint1_linear_0_1)"/>
<path d="M78.2169 141.776C80.2795 143.17 82.1038 144.233 83.7423 145.529C94.4095 154 106.616 153.437 116.441 143.96C116.702 143.711 116.999 143.49 117.568 143.013C119.747 147.836 121.827 152.466 123.924 157.097C125.638 160.873 127.457 164.609 129.031 168.444C129.455 169.478 129.67 171.331 129.107 171.854C128.346 172.551 126.672 172.639 125.499 172.418C123.047 171.959 120.665 171.105 118.248 170.448C112.781 168.972 107.732 171.128 105.042 176.171C103.682 178.728 102.573 181.418 101.155 183.939C100.702 184.741 99.6152 185.665 98.8251 185.659C98.0407 185.659 96.9019 184.718 96.5301 183.91C90.3018 170.309 84.1664 156.661 78.0252 143.025C77.9613 142.886 78.0717 142.676 78.2228 141.77L78.2169 141.776Z" fill="url(#paint2_linear_0_1)"/>
<path d="M72.6395 112.982C51.1192 112.854 33.6892 95.3482 33.7879 73.9674C33.8867 52.4587 51.5898 35.1159 73.2495 35.3018C94.4677 35.4819 111.869 53.2082 111.665 74.4264C111.462 95.7259 93.8751 113.104 72.6453 112.982H72.6395ZM66.8759 78.1564C65.3711 76.0358 64.0639 74.1475 62.7102 72.2883C60.7929 69.6622 58.1261 68.9824 55.9822 70.5279C53.8847 72.0443 53.5942 74.5949 55.3547 77.2094C57.4056 80.2538 59.503 83.275 61.6818 86.2323C63.9535 89.3174 66.1671 89.6312 69.3568 87.3362C75.0041 83.2692 80.605 79.1383 86.2291 75.0364C88.2568 73.5549 90.3368 72.1372 92.318 70.5918C94.5781 68.8255 95.0545 66.2052 93.602 64.2066C92.1204 62.1673 89.564 61.8187 87.1645 63.3699C86.2756 63.9451 85.4331 64.6075 84.579 65.235C78.8039 69.4472 73.0287 73.6653 66.8817 78.1564H66.8759Z" fill="url(#paint3_linear_0_1)"/>
</g>
<defs>
<linearGradient id="paint0_linear_0_1" x1="72.7383" y1="0" x2="72.7383" y2="142.562" gradientUnits="userSpaceOnUse">
<stop stop-color="#DDAB52"/>
<stop offset="1" stop-color="#FDDE6E"/>
</linearGradient>
<linearGradient id="paint1_linear_0_1" x1="41.7165" y1="141.886" x2="41.7165" y2="185.81" gradientUnits="userSpaceOnUse">
<stop stop-color="#DDAB52"/>
<stop offset="1" stop-color="#FDDE6E"/>
</linearGradient>
<linearGradient id="paint2_linear_0_1" x1="103.727" y1="141.77" x2="103.727" y2="185.659" gradientUnits="userSpaceOnUse">
<stop stop-color="#DDAB52"/>
<stop offset="1" stop-color="#FDDE6E"/>
</linearGradient>
<linearGradient id="paint3_linear_0_1" x1="72.7273" y1="35.3003" x2="72.7273" y2="112.982" gradientUnits="userSpaceOnUse">
<stop stop-color="#DDAB52"/>
<stop offset="1" stop-color="#FDDE6E"/>
</linearGradient>
<clipPath id="clip0_0_1">
<rect width="1440" height="10785" fill="white" transform="translate(-282 -6821)"/>
</clipPath>
</defs>
</svg>
