<svg width="166" height="164" viewBox="0 0 166 164" fill="none" xmlns="http://www.w3.org/2000/svg">
<rect width="166" height="164" fill="#1E1E1E"/>
<g clip-path="url(#clip0_0_1)">
<rect width="1440" height="10785" transform="translate(-986 -7463)" fill="white"/>
<path d="M29.248 93.9925H66.8572V141.965H72.1219V88.6473H34.8937V51.0864H82.8766V141.975H109.694V96.5577C107.01 96.5577 104.279 96.6167 101.552 96.547C92.7458 96.3216 85.9838 89.5597 85.796 80.533C94.2323 80.6296 103.119 78.5903 109.634 87.3164V69.7193C107.837 69.7193 105.91 69.7783 103.994 69.7086C95.3486 69.3973 88.7047 62.6676 88.4739 53.6248C93.8459 53.92 99.2716 52.7393 104.531 54.6177C111.314 57.0434 114.749 62.2275 115.382 71.3132C121.683 62.5066 130.623 64.562 139.247 64.3688C139.408 68.3347 138.083 71.6244 135.748 74.5224C133.376 77.4687 130.328 79.5563 126.539 80.0232C122.928 80.4686 119.257 80.4686 115.42 80.6779V98.0121C121.784 89.3128 130.763 91.3897 139.382 91.2233C139.07 97.3573 136.51 101.86 131.536 105.015C126.577 108.16 120.99 107.055 115.43 107.371V142.056H166V163.458H0V142.238H29.248V93.9925ZM45.3049 61.5406V56.4799H40.2925V61.5406H45.3049ZM55.9898 61.5513V56.5335H50.9774V61.5513H55.9898ZM66.7231 61.5513V56.5335H61.7107V61.5513H66.7231ZM72.4653 56.3672V61.4708H77.4295V56.3672H72.4653ZM45.2405 72.3006V67.1863H40.2549V72.3006H45.2405ZM56.0703 67.1863H50.9935V72.2148H56.0703V67.1863ZM61.6194 72.1772H66.7338V67.2507H61.6194V72.1772ZM72.4546 67.1004V72.2148H77.4402V67.1004H72.4546ZM40.1959 82.9265H45.3103V77.9409H40.1959V82.9265ZM50.9774 77.9034V82.9587H55.9845V77.9034H50.9774ZM61.6892 82.948H66.7123V77.9141H61.6892V82.948ZM77.4992 83.007V77.9517H72.4922V83.007H77.4992ZM39.9598 99.4289H34.9366V104.463H39.9598V99.4289ZM45.5894 104.414H50.6125V99.3806H45.5894V104.414ZM56.2528 104.377H61.3672V99.4503H56.2528V104.377ZM34.7864 115.174H39.9007V110.189H34.7864V115.174ZM45.6108 110.103V115.164H50.6232V110.103H45.6108ZM56.344 110.103V115.158H61.3511V110.103H56.344ZM34.8776 120.836V125.897H39.89V120.836H34.8776ZM45.5894 125.918H50.6501V120.906H45.5894V125.918ZM61.3994 125.94V120.885H56.3923V125.94H61.3994Z" fill="url(#paint0_linear_0_1)"/>
<path d="M160.66 51.1187C164.395 64.7767 164.503 78.4562 161.073 92.141C157.666 105.745 150.984 117.616 141.362 127.888C142.457 129.085 143.407 130.126 144.635 131.473C137.476 133.265 130.613 134.983 123.271 136.818C125.09 129.53 126.797 122.672 128.643 115.266C130.323 117.257 131.686 118.872 133.339 120.836C151.709 100.175 156.565 77.1038 149.771 51.1187H160.655H160.66Z" fill="url(#paint1_linear_0_1)"/>
<path d="M61.6946 13.6973V2.69035C90.6206 -4.21111 116.176 2.13759 138.636 22.0584C139.634 21.1086 140.637 20.1479 142.049 18.7955C143.857 25.9814 145.58 32.8131 147.437 40.1761C140.23 38.389 133.387 36.6932 126.051 34.8739C127.8 33.0278 129.282 31.4661 130.967 29.6898C110.767 11.7063 87.6368 6.92461 61.6946 13.6973Z" fill="url(#paint2_linear_0_1)"/>
<path d="M24.6381 24.833C23.6185 23.7543 22.7062 22.7937 21.4128 21.4252C28.6148 19.6113 35.4358 17.894 42.7719 16.0479C40.9634 23.3089 39.2568 30.1567 37.3194 37.9436C35.6021 35.636 34.2927 33.8757 32.8222 31.8901C14.2752 52.7233 9.49357 75.8641 16.277 101.796H5.25395C-1.62604 72.8534 4.71192 47.303 24.6381 24.833Z" fill="url(#paint3_linear_0_1)"/>
</g>
<defs>
<linearGradient id="paint0_linear_0_1" x1="83" y1="51.0864" x2="83" y2="163.458" gradientUnits="userSpaceOnUse">
<stop stop-color="#DDAB52"/>
<stop offset="1" stop-color="#FDDE6E"/>
</linearGradient>
<linearGradient id="paint1_linear_0_1" x1="143.414" y1="51.1187" x2="143.414" y2="136.818" gradientUnits="userSpaceOnUse">
<stop stop-color="#DDAB52"/>
<stop offset="1" stop-color="#FDDE6E"/>
</linearGradient>
<linearGradient id="paint2_linear_0_1" x1="104.566" y1="0" x2="104.566" y2="40.1761" gradientUnits="userSpaceOnUse">
<stop stop-color="#DDAB52"/>
<stop offset="1" stop-color="#FDDE6E"/>
</linearGradient>
<linearGradient id="paint3_linear_0_1" x1="22.6733" y1="16.0479" x2="22.6733" y2="101.796" gradientUnits="userSpaceOnUse">
<stop stop-color="#DDAB52"/>
<stop offset="1" stop-color="#FDDE6E"/>
</linearGradient>
<clipPath id="clip0_0_1">
<rect width="1440" height="10785" fill="white" transform="translate(-986 -7463)"/>
</clipPath>
</defs>
</svg>
