<svg width="211" height="137" viewBox="0 0 211 137" fill="none" xmlns="http://www.w3.org/2000/svg">
<rect width="211" height="137" fill="#1E1E1E"/>
<g clip-path="url(#clip0_0_1)">
<rect width="1440" height="10785" transform="translate(-966 -6639)" fill="white"/>
<path d="M145.707 95.4286C149.517 92.2386 152.897 91.3486 156.757 93.5086C157.047 93.6686 157.387 93.7386 157.667 93.9086C168.037 100.319 178.377 100.069 188.677 93.7486C191.807 91.8286 194.667 92.3386 198.087 93.5886C205.707 96.3686 209.177 101.409 209.227 109.399C209.247 113.209 209.987 117.009 210.477 120.809C210.957 124.539 209.367 126.589 205.627 126.789C191.687 127.549 177.747 128.349 163.787 128.819C162.647 128.859 160.677 126.749 160.397 125.369C159.377 120.499 158.717 115.519 158.317 110.549C157.777 103.909 154.917 99.1886 148.417 96.9886C147.677 96.7386 147.027 96.1986 145.717 95.4286H145.707Z" fill="url(#paint0_linear_0_1)"/>
<path d="M64.6865 95.6185C62.9265 96.5285 61.6665 97.2785 60.3265 97.8385C55.7465 99.7585 53.2965 103.259 52.6365 108.089C51.8465 113.859 50.9065 119.619 50.3865 125.409C50.1365 128.239 48.9865 129.219 46.3365 129.059C32.5665 128.239 18.7965 127.469 5.02652 126.639C0.986518 126.399 -0.443482 124.099 0.116518 120.219C0.616518 116.759 1.33652 113.279 1.28652 109.809C1.16652 101.339 4.84652 95.7385 13.0365 93.5785C15.5365 92.9185 18.3465 93.2885 21.0065 93.4085C21.9365 93.4485 22.9165 94.0185 23.7565 94.5385C33.0465 100.219 42.2265 99.9585 51.5565 94.4885C55.7365 92.0385 60.1665 90.8185 64.6965 95.6285L64.6865 95.6185Z" fill="url(#paint1_linear_0_1)"/>
<path d="M166.447 55.8387C163.017 59.5287 159.607 62.9287 156.577 66.6387C155.747 67.6587 155.457 69.8087 155.917 71.0687C157.797 76.1387 160.067 81.0687 162.377 86.4787C159.457 86.6487 156.367 86.9987 153.287 86.9787C145.897 86.9187 143.537 83.3887 145.607 76.2287C147.727 68.9087 149.697 61.5387 151.547 54.1487C153.537 46.1587 157.737 39.8887 165.897 37.6987C174.367 35.4287 182.537 37.6787 188.357 43.9387C191.457 47.2687 192.387 52.7887 193.827 57.4687C195.627 63.2987 196.727 69.3487 198.547 75.1787C200.427 81.2087 196.737 87.3487 190.237 87.6887C187.387 87.8387 184.477 86.9187 180.657 86.3387C182.577 83.5187 184.157 81.6587 185.217 79.5387C186.537 76.8787 187.747 74.0787 188.427 71.1987C189.747 65.6087 189.037 64.7387 183.377 63.8087C180.027 63.2487 176.377 63.4587 173.397 62.1087C170.727 60.8987 168.797 58.0487 166.437 55.8287L166.447 55.8387Z" fill="url(#paint2_linear_0_1)"/>
<path d="M45.2867 86.2683C47.4767 82.9483 49.5267 80.6783 50.5867 78.0183C51.9167 74.6883 52.7167 71.0583 53.1167 67.4983C53.2367 66.4583 51.3867 64.7383 50.0767 64.1283C48.3267 63.3183 46.2167 63.2583 44.2567 62.9083C39.0167 61.9783 33.4767 61.6283 31.5067 55.2783C27.7967 59.3083 24.3467 62.6783 21.4267 66.4583C20.4467 67.7283 20.1667 70.2783 20.7267 71.8383C22.4467 76.6283 24.7267 81.2283 27.2667 86.9583C23.3867 86.9583 19.6667 87.1683 15.9667 86.9083C10.9167 86.5483 8.54666 83.6783 9.73666 78.8383C12.1567 69.0183 14.6867 59.2083 17.7667 49.5883C20.2967 41.6983 28.7267 36.3183 36.2267 36.8783C47.9367 37.7483 55.3767 43.1783 57.5767 52.3783C59.4967 60.4183 61.4567 68.4483 63.4767 76.4683C64.8367 81.8883 60.6367 87.5183 54.5367 87.7083C51.7067 87.7983 48.8367 86.8683 45.2967 86.2883L45.2867 86.2683Z" fill="url(#paint3_linear_0_1)"/>
<path d="M115.777 88.1685C125.447 92.5285 133.397 96.6585 141.737 99.7085C149.547 102.568 153.767 107.038 153.687 115.688C153.637 120.798 154.787 125.918 155.457 131.028C155.907 134.498 154.297 135.948 150.957 135.938C141.477 135.908 131.997 135.848 122.517 135.938C119.507 135.968 118.247 135.018 118.757 131.838C119.227 128.888 118.987 125.818 119.577 122.908C120.727 117.148 119.507 111.888 117.917 106.328C116.377 100.958 116.517 95.1085 115.787 88.1785L115.777 88.1685Z" fill="url(#paint4_linear_0_1)"/>
<path d="M91.7965 135.829C80.2765 135.829 69.3565 135.949 58.4465 135.659C57.2865 135.629 55.1365 133.089 55.2365 131.869C55.9165 123.769 56.9065 115.669 58.2265 107.649C58.4965 105.989 60.2465 103.989 61.8265 103.229C72.1365 98.2886 82.5965 93.6486 93.8665 88.5186C93.8665 94.1886 95.3765 99.8486 93.5465 104.049C89.9865 112.219 90.4665 120.159 91.4265 128.429C91.6865 130.679 91.6665 132.959 91.8065 135.839L91.7965 135.829Z" fill="url(#paint5_linear_0_1)"/>
<path d="M105.057 69.9787C103.057 69.9787 101.047 69.8387 99.0566 70.0087C94.1166 70.4187 89.9166 70.3387 89.1266 63.6787C88.8766 61.5887 86.4966 59.5487 84.7066 57.8887C71.7366 45.7987 71.0166 26.2587 83.1866 13.6287C95.3066 1.05865 114.727 0.868654 127.037 13.1987C139.367 25.5487 138.887 45.2387 126.307 57.5787C123.737 60.0987 122.497 63.9387 120.307 66.9187C119.317 68.2687 117.577 69.6987 116.037 69.8787C112.427 70.3087 108.727 70.0187 105.057 70.0187C105.057 70.0087 105.057 69.9887 105.057 69.9787ZM105.287 64.9587V64.8987C107.617 64.8987 109.997 65.1787 112.257 64.7987C113.637 64.5687 115.127 63.5687 116.057 62.4787C118.397 59.7387 120.127 56.4286 122.677 53.9187C133.177 43.5587 133.797 27.2087 123.837 17.1387C113.317 6.50865 97.2166 6.52866 86.7966 17.1987C76.6166 27.6087 77.3266 43.8587 88.2666 54.2487C90.4066 56.2787 92.6666 58.5687 93.7666 61.1987C95.0566 64.2487 96.7666 65.2287 99.7866 64.9987C101.607 64.8587 103.447 64.9687 105.277 64.9687L105.287 64.9587Z" fill="url(#paint6_linear_0_1)"/>
<path d="M100.917 92.9487H112.087C108.087 98.2987 110.677 102.979 112.447 107.349C116.007 116.119 113.607 124.769 112.737 133.459C112.647 134.349 111.167 135.169 110.217 135.879C109.887 136.129 109.247 135.939 108.747 135.969C97.7466 136.529 97.9766 136.499 96.5866 125.619C95.6266 118.129 96.7766 111.159 99.3266 104.139C100.477 100.969 100.347 97.3287 100.917 92.9687V92.9487Z" fill="url(#paint7_linear_0_1)"/>
<path d="M93.5365 73.2085H117.057C117.637 81.3885 113.067 85.5585 103.987 85.4785C97.3165 85.4185 92.8965 80.3485 93.5365 73.2085Z" fill="url(#paint8_linear_0_1)"/>
<path d="M63.7965 36.3085C61.9165 35.1685 60.4265 34.2685 58.9365 33.3685C60.6665 32.6485 62.3965 31.3685 64.1165 31.3785C65.8265 31.3885 67.5365 32.7085 69.2465 33.4485C67.5465 34.3385 65.8465 35.2285 63.8065 36.3085H63.7965Z" fill="url(#paint9_linear_0_1)"/>
<path d="M146.657 36.4985C144.497 35.1985 142.877 34.2285 141.267 33.2485C143.057 32.5685 144.837 31.4185 146.657 31.3585C148.287 31.3085 149.967 32.4485 151.617 33.0685C150.107 34.1085 148.597 35.1585 146.657 36.4985Z" fill="url(#paint10_linear_0_1)"/>
<path d="M75.7865 14.0085C73.7465 15.2285 72.5165 16.3985 72.0965 16.1585C69.5965 14.7285 67.2865 12.9685 64.9165 11.3185C65.5665 10.5485 66.5865 9.02847 66.8265 9.13847C69.5365 10.4285 72.1365 11.9585 75.7965 14.0085H75.7865Z" fill="url(#paint11_linear_0_1)"/>
<path d="M147.237 10.5188C144.577 12.5388 143.197 13.8788 141.577 14.7288C140.237 15.4288 138.607 15.6188 137.087 15.8288C136.947 15.8488 136.247 13.9188 136.407 13.8088C138.947 12.1388 141.547 10.5488 144.247 9.14877C144.677 8.92877 145.657 9.75877 147.247 10.5188H147.237Z" fill="url(#paint12_linear_0_1)"/>
<path d="M81.9966 6.9386C79.6166 7.6186 78.2065 8.4086 77.8365 8.0686C75.6965 6.1086 73.8065 3.8786 71.8365 1.7486C72.6665 1.1486 74.0265 -0.111404 74.2565 0.0585964C76.6165 1.9186 78.7865 4.0086 82.0065 6.9386H81.9966Z" fill="url(#paint13_linear_0_1)"/>
<path d="M139.827 2.05873C136.817 4.49873 134.477 6.43873 132.027 8.22873C131.897 8.31873 130.817 7.11873 130.177 6.51873C132.257 4.31873 134.277 2.06873 136.497 0.0187329C136.687 -0.161267 138.117 0.988733 139.827 2.05873Z" fill="url(#paint14_linear_0_1)"/>
<path d="M140.816 27.3486C140.546 26.0486 139.666 23.9086 140.106 23.5986C142.216 22.0886 144.596 20.8686 147.046 20.0086C147.816 19.7386 149.106 20.9286 150.156 21.4586C147.876 22.9786 145.606 24.4986 143.326 26.0086C142.486 26.4586 141.656 26.8986 140.816 27.3486Z" fill="url(#paint15_linear_0_1)"/>
<path d="M67.1265 26.1884C64.6065 24.4284 62.5065 22.9484 60.3965 21.4684C61.5965 20.9684 63.0065 19.8084 63.9465 20.1084C66.2465 20.8484 68.3265 22.2584 70.4965 23.4084C69.5465 24.1984 68.5965 24.9784 67.1265 26.1884Z" fill="url(#paint16_linear_0_1)"/>
</g>
<defs>
<linearGradient id="paint0_linear_0_1" x1="178.133" y1="92.3257" x2="178.133" y2="128.819" gradientUnits="userSpaceOnUse">
<stop stop-color="#DDAB52"/>
<stop offset="1" stop-color="#FDDE6E"/>
</linearGradient>
<linearGradient id="paint1_linear_0_1" x1="32.3483" y1="92.3359" x2="32.3483" y2="129.075" gradientUnits="userSpaceOnUse">
<stop stop-color="#DDAB52"/>
<stop offset="1" stop-color="#FDDE6E"/>
</linearGradient>
<linearGradient id="paint2_linear_0_1" x1="171.963" y1="36.8354" x2="171.963" y2="87.705" gradientUnits="userSpaceOnUse">
<stop stop-color="#DDAB52"/>
<stop offset="1" stop-color="#FDDE6E"/>
</linearGradient>
<linearGradient id="paint3_linear_0_1" x1="36.5837" y1="36.8384" x2="36.5837" y2="87.7144" gradientUnits="userSpaceOnUse">
<stop stop-color="#DDAB52"/>
<stop offset="1" stop-color="#FDDE6E"/>
</linearGradient>
<linearGradient id="paint4_linear_0_1" x1="135.654" y1="88.1685" x2="135.654" y2="135.939" gradientUnits="userSpaceOnUse">
<stop stop-color="#DDAB52"/>
<stop offset="1" stop-color="#FDDE6E"/>
</linearGradient>
<linearGradient id="paint5_linear_0_1" x1="74.8426" y1="88.5186" x2="74.8426" y2="135.853" gradientUnits="userSpaceOnUse">
<stop stop-color="#DDAB52"/>
<stop offset="1" stop-color="#FDDE6E"/>
</linearGradient>
<linearGradient id="paint6_linear_0_1" x1="105.259" y1="4.07471" x2="105.259" y2="70.1475" gradientUnits="userSpaceOnUse">
<stop stop-color="#DDAB52"/>
<stop offset="1" stop-color="#FDDE6E"/>
</linearGradient>
<linearGradient id="paint7_linear_0_1" x1="105.294" y1="92.9487" x2="105.294" y2="136.154" gradientUnits="userSpaceOnUse">
<stop stop-color="#DDAB52"/>
<stop offset="1" stop-color="#FDDE6E"/>
</linearGradient>
<linearGradient id="paint8_linear_0_1" x1="105.29" y1="73.2085" x2="105.29" y2="85.4796" gradientUnits="userSpaceOnUse">
<stop stop-color="#DDAB52"/>
<stop offset="1" stop-color="#FDDE6E"/>
</linearGradient>
<linearGradient id="paint9_linear_0_1" x1="64.0915" y1="31.3784" x2="64.0915" y2="36.3085" gradientUnits="userSpaceOnUse">
<stop stop-color="#DDAB52"/>
<stop offset="1" stop-color="#FDDE6E"/>
</linearGradient>
<linearGradient id="paint10_linear_0_1" x1="146.442" y1="31.3569" x2="146.442" y2="36.4985" gradientUnits="userSpaceOnUse">
<stop stop-color="#DDAB52"/>
<stop offset="1" stop-color="#FDDE6E"/>
</linearGradient>
<linearGradient id="paint11_linear_0_1" x1="70.3565" y1="9.13281" x2="70.3565" y2="16.19" gradientUnits="userSpaceOnUse">
<stop stop-color="#DDAB52"/>
<stop offset="1" stop-color="#FDDE6E"/>
</linearGradient>
<linearGradient id="paint12_linear_0_1" x1="141.815" y1="9.11279" x2="141.815" y2="15.8289" gradientUnits="userSpaceOnUse">
<stop stop-color="#DDAB52"/>
<stop offset="1" stop-color="#FDDE6E"/>
</linearGradient>
<linearGradient id="paint13_linear_0_1" x1="76.9215" y1="0.0429687" x2="76.9215" y2="8.15017" gradientUnits="userSpaceOnUse">
<stop stop-color="#DDAB52"/>
<stop offset="1" stop-color="#FDDE6E"/>
</linearGradient>
<linearGradient id="paint14_linear_0_1" x1="135.002" y1="0" x2="135.002" y2="8.23353" gradientUnits="userSpaceOnUse">
<stop stop-color="#DDAB52"/>
<stop offset="1" stop-color="#FDDE6E"/>
</linearGradient>
<linearGradient id="paint15_linear_0_1" x1="145.071" y1="19.9692" x2="145.071" y2="27.3486" gradientUnits="userSpaceOnUse">
<stop stop-color="#DDAB52"/>
<stop offset="1" stop-color="#FDDE6E"/>
</linearGradient>
<linearGradient id="paint16_linear_0_1" x1="65.4465" y1="20.0596" x2="65.4465" y2="26.1884" gradientUnits="userSpaceOnUse">
<stop stop-color="#DDAB52"/>
<stop offset="1" stop-color="#FDDE6E"/>
</linearGradient>
<clipPath id="clip0_0_1">
<rect width="1440" height="10785" fill="white" transform="translate(-966 -6639)"/>
</clipPath>
</defs>
</svg>
