<svg width="44" height="31" viewBox="0 0 44 31" fill="none" xmlns="http://www.w3.org/2000/svg">
<path d="M28.4721 17.2939L24.7936 20.9725C23.3126 22.4535 20.685 22.5013 19.1563 20.9725L15.4777 17.2939L2.24438 30.575C2.72212 30.8139 3.29541 30.9572 3.86869 30.9572H40.1289C40.7022 30.9572 41.2277 30.8139 41.7532 30.575L28.5199 17.2939H28.4721Z" fill="#DDAB51"/>
<path d="M40.1289 0H3.86869C3.29541 0 2.76989 0.143321 2.24438 0.382189L16.3854 14.571L20.9717 19.205C21.4494 19.6827 22.5004 19.6827 22.9782 19.205L27.5644 14.571L41.7054 0.382189C41.2277 0.143321 40.6544 0 40.0811 0H40.1289Z" fill="#DDAB51"/>
<path d="M0.429963 2.15039C0.191095 2.6759 0 3.24918 0 3.87024V27.0405C0 27.6615 0.143321 28.2348 0.429963 28.7603L13.6633 15.4792L0.429963 2.15039Z" fill="#DDAB51"/>
<path d="M43.57 2.15039L30.3367 15.4315L43.57 28.7125C43.8088 28.187 43.9999 27.6137 43.9999 26.9927V3.87024C43.9999 3.24918 43.8566 2.6759 43.57 2.15039Z" fill="#DDAB51"/>
</svg>
